<?xml version="1.0" encoding="UTF-8" standalone="no"?>
<svg xmlns:inkscape="http://www.inkscape.org/namespaces/inkscape" xmlns:sodipodi="http://sodipodi.sourceforge.net/DTD/sodipodi-0.dtd" xmlns:xlink="http://www.w3.org/1999/xlink" xmlns="http://www.w3.org/2000/svg" xmlns:svg="http://www.w3.org/2000/svg" width="189.77838mm" height="189.7784mm" viewBox="0 0 189.77838 189.7784" version="1.1" id="svg5" xml:space="preserve">
  <defs id="defs2">
    <linearGradient id="linearGradient5399">
      <stop style="stop-color:#00d8ff;stop-opacity:1;" offset="0" id="stop5395"></stop>
      <stop style="stop-color:#a60df1;stop-opacity:1;" offset="0.99993718" id="stop5397"></stop>
    </linearGradient>
    <rect x="264.78854" y="478.08701" width="102.55244" height="81.575447" id="rect5012"></rect>
    <linearGradient xlink:href="#linearGradient5399" id="linearGradient5401" x1="37.810192" y1="72.406906" x2="170.77548" y2="189.46971" gradientUnits="userSpaceOnUse" spreadMethod="pad" gradientTransform="matrix(0.90572872,0,0,0.90572872,9.8822369,12.196573)"></linearGradient>
  </defs>
  <g id="layer2" transform="translate(-9.9384606,-34.488204)">
    <circle style="opacity:1;fill:#ffffff;fill-opacity:1;stroke-width:0.275148" id="circle5352" cx="104.82765" cy="129.3774" r="94.889191"></circle>
    <circle style="opacity:1;fill:url(#linearGradient5401);fill-opacity:1;fill-rule:nonzero;stroke-width:0.239743" id="circle5355" cx="104.82765" cy="129.3774" r="82.679001"></circle>
    <circle style="opacity:1;fill:#ffffff;fill-opacity:1;stroke-width:0.227628" id="path5348" cx="104.82765" cy="129.3774" r="78.501282"></circle>
    <path style="opacity:1;fill:#ffffff;fill-opacity:1;fill-rule:nonzero;stroke-width:0.264583" d="m 183.54839,156.31723 c -2.423,2.66698 -8.43466,9.53416 -11.04428,11.26594 -5.69525,3.77946 0.33708,-25.04539 0.33708,-25.04539 l 21.4637,-7.1456 -6.85974,9.79903 c 0,0 -1.8764,8.90223 -3.89676,11.12602 z" id="path6143"></path>
    <path style="opacity:1;fill:#ffffff;fill-opacity:1;fill-rule:nonzero;stroke-width:0.264583" d="m 169.36106,86.58925 c 2.20664,-0.504231 5.52249,-1.039304 7.72777,-0.52915 4.8974,1.132929 12.32772,5.65428 12.32772,5.65428 l -13.4564,11.34179 -19.85889,-13.239263 c 0,0 8.82511,-2.214304 13.2598,-3.227657 z" id="path6140"></path>
    <path style="opacity:1;fill:#ffffff;fill-opacity:1;fill-rule:nonzero;stroke-width:0.264583" d="m 24.508875,105.45929 c -0.213719,1.89001 3.365964,3.5818 4.579319,4.2258 7.304779,3.87709 13.829825,-29.978295 11.733886,-23.496978 -1.097703,3.39445 -7.441425,2.235846 -8.132589,0.125007 -2.508793,-7.661939 -7.351069,11.81014 -8.180616,19.146171 z" id="path6137"></path>
    <g id="g6135" transform="translate(1.9184923,2.3024621)">
      <path style="fill:#0c82e2;fill-opacity:1;stroke-width:0.264583" d="m 76.980357,189.98492 c -14.430322,20.25631 24.628773,-3.1502 34.199983,-12.9696 72.55062,7.19859 89.51913,-66.33735 78.5353,-81.726862 C 165.76781,61.734991 85.389382,160.96548 63.801209,96.976454 72.513975,103.85448 71.893856,120.60904 76.112299,92.26627 77.598101,82.283501 74.415397,70.225159 65.431576,66.305434 65.013564,78.801651 52.093847,80.178761 50.427169,88.314342 41.858066,84.281226 39.683139,95.344437 20.097731,84.295005 6.7192933,97.142001 49.497776,113.55254 49.497776,113.55254 c 0,0 9.711386,49.08516 36.596291,52.79624 15.521693,-31.45035 3.944645,4.8877 -9.11371,23.63614 z" id="path281"></path>
      <g aria-label="CZ" transform="scale(0.26458333)" id="text5010" style="font-size:64px;white-space:pre;shape-inside:url(#rect5012);opacity:1;fill:#0c82e2">
        <path d="m 283.19474,499.9679 c -2.816,3.28533 -4.224,7.78667 -4.224,13.504 0,5.67467 1.30133,10.176 3.904,13.504 5.04237,4.99567 7.92144,4.88697 14.784,3.136 v 4.992 c -5.76789,2.24144 -9.95751,1.39267 -15.424,-1.024 -3.11467,-1.92 -5.46133,-4.65067 -7.04,-8.192 -1.536,-3.54133 -2.304,-7.70133 -2.304,-12.48 0,-4.608 0.832,-8.66133 2.496,-12.16 1.70667,-3.54133 4.20267,-6.29333 7.488,-8.256 7.22029,-3.04032 10.28185,-3.4486 16.576,-0.32 l -2.304,4.864 c -5.74101,-2.95826 -9.47211,-1.56057 -13.952,2.432 z" style="fill:#ffffff" id="path5068"></path>
        <path d="m 322.69136,536.3199 h -21.68 v -4.352 l 14.064,-36.224 h -13.296 v -5.12 h 20.272 v 4.352 l -14.064,36.224 h 14.704 z" style="fill:#ffffff" id="path5070"></path>
      </g>
      <ellipse style="opacity:1;fill:#ffffff;fill-opacity:1;stroke-width:0.264583" id="path5125" cx="98.08168" cy="159.97867" rx="5.9001265" ry="3.5441623" transform="rotate(-17.960361)"></ellipse>
      <path style="opacity:1;fill:#ffffff;fill-opacity:1;stroke-width:0.264583" d="m 187.17214,104.14891 c -25.35151,-3.07594 -25.67292,30.00016 -55.07155,29.82095 1.46783,19.49044 -14.47236,37.33011 -14.47236,37.33011 0,0 64.30824,8.40361 69.54391,-67.15106 z" id="path5181"></path>
    </g>
  </g>
</svg>
